<svg xmlns="http://www.w3.org/2000/svg" viewBox="0 0 320 320" role="img" aria-label="Victory Nim mascot">
  <defs>
    <radialGradient id="fur-victory" cx="45%" cy="34%" r="70%">
      <stop offset="0%" stop-color="#fffdf6"/>
      <stop offset="58%" stop-color="#ffe0a6"/>
      <stop offset="100%" stop-color="#ffba57"/>
    </radialGradient>
  </defs>
  <ellipse cx="160" cy="278" rx="96" ry="22" fill="#5b3c1f" opacity=".14"/>
  <path d="M86 106c-7-39 19-72 55-45 12-29 55-29 68 0 36-27 62 6 55 45 27 22 42 59 35 94-11 54-64 88-139 88S32 254 21 200c-7-35 8-72 65-94z" fill="url(#fur-victory)"/>
  <path d="M103 151c12 15 31 15 43 0M174 151c12 15 31 15 43 0" fill="none" stroke="#4a3a4d" stroke-width="9" stroke-linecap="round"/>
  <path d="M135 190c17 19 50 19 67 0" fill="none" stroke="#d76c6c" stroke-width="9" stroke-linecap="round"/>
  <path d="M63 118L34 78M257 118l29-40" fill="none" stroke="#ff6b8b" stroke-width="16" stroke-linecap="round"/>
  <path d="M49 69l-20-6 8 19zM271 69l20-6-8 19z" fill="#ffc93c"/>
  <circle cx="77" cy="176" r="12" fill="#ff8fab" opacity=".55"/>
  <circle cx="243" cy="176" r="12" fill="#ff8fab" opacity=".55"/>
</svg>
