<svg xmlns="http://www.w3.org/2000/svg" viewBox="0 0 320 320" role="img" aria-label="Nim mascot">
  <defs>
    <radialGradient id="fur" cx="45%" cy="34%" r="70%">
      <stop offset="0%" stop-color="#fff9f0"/>
      <stop offset="62%" stop-color="#ffd8b5"/>
      <stop offset="100%" stop-color="#f2a56f"/>
    </radialGradient>
    <linearGradient id="shadow" x1="0" x2="1" y1="0" y2="1">
      <stop offset="0%" stop-color="#7b4c32" stop-opacity=".18"/>
      <stop offset="100%" stop-color="#7b4c32" stop-opacity=".04"/>
    </linearGradient>
  </defs>
  <ellipse cx="160" cy="278" rx="96" ry="22" fill="#4b2d43" opacity=".16"/>
  <path d="M86 106c-7-39 19-72 55-45 12-29 55-29 68 0 36-27 62 6 55 45 27 22 42 59 35 94-11 54-64 88-139 88S32 254 21 200c-7-35 8-72 65-94z" fill="url(#fur)"/>
  <path d="M80 111c8-28 28-42 55-30-7 13-24 30-44 38-5 2-10-2-11-8zM240 111c-8-28-28-42-55-30 7 13 24 30 44 38 5 2 10-2 11-8z" fill="#ffb3c8"/>
  <circle cx="113" cy="153" r="12" fill="#4a3a4d"/>
  <circle cx="207" cy="153" r="12" fill="#4a3a4d"/>
  <circle cx="118" cy="149" r="4" fill="#fff"/>
  <circle cx="212" cy="149" r="4" fill="#fff"/>
  <path d="M152 178c5 8 11 8 16 0" fill="none" stroke="#9b5f6a" stroke-width="7" stroke-linecap="round"/>
  <path d="M160 166l-11-9h22z" fill="#e8848d"/>
  <path d="M71 188c25-8 51-6 75 5M249 188c-25-8-51-6-75 5" fill="none" stroke="#a66f52" stroke-width="5" stroke-linecap="round" opacity=".45"/>
  <path d="M58 214c35 44 171 44 204 0 4 37-39 74-102 74S54 251 58 214z" fill="url(#shadow)"/>
  <path d="M111 236c11 13 87 13 98 0" fill="none" stroke="#d17a86" stroke-width="8" stroke-linecap="round"/>
  <circle cx="84" cy="177" r="12" fill="#ff8fab" opacity=".5"/>
  <circle cx="236" cy="177" r="12" fill="#ff8fab" opacity=".5"/>
</svg>
