<svg xmlns="http://www.w3.org/2000/svg" viewBox="0 0 320 320" role="img" aria-label="Thinking Nim mascot">
  <defs>
    <radialGradient id="fur-thinking" cx="45%" cy="32%" r="72%">
      <stop offset="0%" stop-color="#fffdf7"/>
      <stop offset="62%" stop-color="#d8efff"/>
      <stop offset="100%" stop-color="#86c7ee"/>
    </radialGradient>
  </defs>
  <ellipse cx="160" cy="278" rx="96" ry="22" fill="#263349" opacity=".14"/>
  <path d="M86 106c-7-39 19-72 55-45 12-29 55-29 68 0 36-27 62 6 55 45 27 22 42 59 35 94-11 54-64 88-139 88S32 254 21 200c-7-35 8-72 65-94z" fill="url(#fur-thinking)"/>
  <path d="M104 153c14-13 30-13 45 0M171 153c14-13 30-13 45 0" fill="none" stroke="#33425f" stroke-width="9" stroke-linecap="round"/>
  <path d="M146 193c11-7 22-7 34 0" fill="none" stroke="#51627e" stroke-width="7" stroke-linecap="round"/>
  <path d="M212 214c22 4 37 15 45 31" fill="none" stroke="#5e84a8" stroke-width="18" stroke-linecap="round"/>
  <circle cx="238" cy="86" r="12" fill="#fff" opacity=".96"/>
  <circle cx="267" cy="61" r="18" fill="#fff" opacity=".86"/>
  <circle cx="222" cy="52" r="8" fill="#fff" opacity=".76"/>
</svg>
