<svg xmlns="http://www.w3.org/2000/svg" viewBox="0 0 320 320" role="img" aria-label="Comforting Nim mascot">
  <defs>
    <radialGradient id="fur-comfort" cx="45%" cy="34%" r="70%">
      <stop offset="0%" stop-color="#fffaf7"/>
      <stop offset="62%" stop-color="#e8ddff"/>
      <stop offset="100%" stop-color="#b69be8"/>
    </radialGradient>
  </defs>
  <ellipse cx="160" cy="278" rx="96" ry="22" fill="#3d2e56" opacity=".14"/>
  <path d="M86 106c-7-39 19-72 55-45 12-29 55-29 68 0 36-27 62 6 55 45 27 22 42 59 35 94-11 54-64 88-139 88S32 254 21 200c-7-35 8-72 65-94z" fill="url(#fur-comfort)"/>
  <circle cx="116" cy="154" r="11" fill="#4a3a4d"/>
  <circle cx="204" cy="154" r="11" fill="#4a3a4d"/>
  <path d="M139 190c14 11 29 11 43 0" fill="none" stroke="#7b5f91" stroke-width="8" stroke-linecap="round"/>
  <path d="M222 221c23 4 41 18 52 39" fill="none" stroke="#8d76bf" stroke-width="17" stroke-linecap="round"/>
  <path d="M251 246c15-15 28-16 39-4" fill="none" stroke="#ff8fab" stroke-width="8" stroke-linecap="round"/>
  <circle cx="83" cy="176" r="12" fill="#ffb3c8" opacity=".55"/>
  <circle cx="237" cy="176" r="12" fill="#ffb3c8" opacity=".55"/>
</svg>
